PathFileType	4	(X/Y/Z)	SUBJ26_1_walk_RCNL2025.trc
DataRate	CameraRate	NumFrames	NumMarkers	Units	OrigDataRate	OrigDataStartFrame	OrigNumFrames
100	100	4	25	mm	100	49	385
Frame#	Time	R_Shoulder			L_Shoulder			C7			J_Notch			R_Elbow			L_Elbow			R_Wrist			L_Wrist			R_Asis			L_Asis			Sacral			Thoracic			Sternum			R_Thigh_Lateral			R_Knee_Lateral			R_Shank_Lateral			R_Ankle_Lateral			R_Heel			R_Toe			L_Thigh_Lateral			L_Knee_Lateral			L_Shank_Lateral			L_Ankle_Lateral			L_Heel			L_Toe		
		X1	Y1	Z1	X2	Y2	Z2	X3	Y3	Z3	X4	Y4	Z4	X5	Y5	Z5	X6	Y6	Z6	X7	Y7	Z7	X8	Y8	Z8	X9	Y9	Z9	X10	Y10	Z10	X11	Y11	Z11	X12	Y12	Z12	X13	Y13	Z13	X14	Y14	Z14	X15	Y15	Z15	X16	Y16	Z16	X17	Y17	Z17	X18	Y18	Z18	X19	Y19	Z19	X20	Y20	Z20	X21	Y21	Z21	X22	Y22	Z22	X23	Y23	Z23	X24	Y24	Z24	X25	Y25	Z25
49	0.48000000	-2232.549072	1306.113037	281.414246	-2247.061768	1317.348877	-55.332191	-2323.684570	1375.915161	126.977119	-2180.733154	1274.725952	108.734268	-2282.417969	992.051147	388.295868	-2341.957031	1000.659790	-153.431610	-2181.627075	758.151917	380.358444	-2278.544189	761.962677	-166.882431	-2213.459717	903.618591	238.162766	-2241.807373	905.468628	-63.022575	-2432.218506	919.903625	105.482979	-2410.246094	1033.362061	105.129578	-2145.562500	1013.146851	105.469139	-2318.617432	575.825928	276.681793	-2337.448242	427.783478	201.546997	-2375.547852	277.812927	235.843201	-2407.009766	44.935787	160.291550	-2453.235352	33.807743	94.642311	-2284.783936	34.899757	152.471527	-2216.967285	600.164246	-108.367584	-2153.805420	450.540894	-36.404415	-2211.192871	285.632202	-104.276390	-2253.928467	81.486115	-16.652193	-2313.090820	71.504951	40.767326	-2141.555176	44.399796	12.893730
50	0.49000000	-2220.119141	1305.086548	281.685760	-2236.322754	1316.132446	-55.356907	-2311.835938	1374.579956	127.564453	-2168.804688	1273.657349	108.724724	-2267.275146	991.263062	389.759369	-2335.176758	999.611877	-151.510986	-2164.258423	758.603027	382.242233	-2275.739624	759.950348	-165.451393	-2202.268311	902.356323	239.740753	-2229.093994	903.981140	-61.551929	-2419.856689	918.574036	105.604385	-2398.020020	1031.910400	105.792282	-2133.197754	1012.427368	105.787308	-2311.389648	575.363586	276.726990	-2335.280273	428.285370	201.078293	-2374.855713	278.594330	235.464066	-2406.969482	45.399395	159.895905	-2453.093506	34.485664	94.167274	-2284.734375	34.856518	152.414642	-2201.063232	599.614136	-107.279869	-2136.177002	450.167389	-34.342377	-2184.856201	281.790710	-101.617943	-2213.007568	75.014748	-13.573848	-2271.135254	61.611305	44.317608	-2098.302490	44.791409	14.852235
51	0.50000000	-2207.726318	1303.885376	281.898102	-2225.528809	1314.728027	-55.446602	-2299.996338	1373.035889	128.059113	-2156.842041	1272.448364	108.684402	-2252.257812	990.327942	391.105927	-2328.312744	998.441895	-149.633575	-2146.907837	759.090393	384.174988	-2272.632568	757.929993	-164.045616	-2191.011719	900.898254	241.189667	-2216.246338	902.201477	-60.266403	-2407.418457	917.105103	105.769035	-2385.729736	1030.278809	106.348068	-2120.732178	1011.543884	106.079216	-2304.854492	575.000366	276.698700	-2333.080322	428.921051	200.692398	-2374.134033	279.540649	235.065887	-2406.921387	45.998337	159.417175	-2452.900391	35.358795	93.572105	-2284.687012	34.819397	152.369324	-2185.592773	598.600342	-106.214500	-2119.149170	449.322662	-32.316696	-2158.282471	277.893372	-99.110016	-2171.826660	69.479019	-10.624590	-2228.891113	52.890053	47.592705	-2055.296631	45.996269	16.932592
52	0.51000000	-2195.342041	1302.536011	282.035004	-2214.655762	1313.159546	-55.597900	-2288.153564	1371.307251	128.458969	-2144.834229	1271.107788	108.619003	-2237.389404	989.273315	392.320801	-2321.320557	997.177917	-147.809357	-2129.709961	759.511627	386.091888	-2269.194092	755.912415	-162.675522	-2179.552246	899.294800	242.458572	-2203.242188	900.184326	-59.162193	-2394.908936	915.502625	105.971062	-2373.387695	1028.491821	106.793358	-2108.177246	1010.469421	106.332329	-2299.010986	574.793945	276.613861	-2330.702637	429.670959	200.375137	-2373.255615	280.638367	234.636658	-2406.846924	46.752926	158.848801	-2452.633301	36.450939	92.848778	-2284.624023	34.789223	152.327515	-2170.658691	597.145508	-105.129829	-2102.669434	448.046387	-30.340408	-2131.487793	274.091461	-96.782257	-2130.664551	65.019577	-7.833887	-2186.687500	45.501907	50.548420	-2012.799316	48.049248	19.155550
